<svg xmlns="http://www.w3.org/2000/svg" xmlns:xlink="http://www.w3.org/1999/xlink" width="870" zoomAndPan="magnify" viewBox="0 0 652.5 50.249999" height="67" preserveAspectRatio="xMidYMid meet" version="1.0"><defs><clipPath id="0718005d21"><path d="M 4.550781 15.613281 L 287.578125 15.613281 L 287.578125 33.351562 L 4.550781 33.351562 Z M 4.550781 15.613281 " clip-rule="nonzero"/></clipPath><clipPath id="00cb349135"><path d="M 364.203125 15.613281 L 647.195312 15.613281 L 647.195312 33.351562 L 364.203125 33.351562 Z M 364.203125 15.613281 " clip-rule="nonzero"/></clipPath><clipPath id="28e5a76243"><path d="M 323 0 L 351 0 L 351 48.773438 L 323 48.773438 Z M 323 0 " clip-rule="nonzero"/></clipPath><clipPath id="b5eb4c8fa3"><path d="M 301 2 L 322 2 L 322 40 L 301 40 Z M 301 2 " clip-rule="nonzero"/></clipPath><clipPath id="7c46314f02"><path d="M 305.976562 2.96875 C 305.503906 5.3125 306.6875 7.730469 308.390625 9.417969 C 310.09375 11.109375 312.273438 12.230469 314.355469 13.4375 C 316.4375 14.644531 318.515625 16.015625 319.828125 18.027344 C 320.964844 19.773438 321.425781 21.867188 321.667969 23.933594 C 321.957031 26.433594 321.917969 29.066406 321.113281 31.425781 C 320.527344 30.003906 319.769531 28.644531 318.898438 27.375 C 317.195312 24.871094 315.097656 22.664062 313.011719 20.46875 C 310.570312 17.90625 308.136719 15.339844 305.695312 12.777344 C 308.21875 17.46875 312.132812 21.242188 315.441406 25.433594 C 318.75 29.617188 321.570312 34.613281 321.261719 39.921875 C 321.015625 37.207031 318.789062 35.050781 316.378906 33.738281 C 313.96875 32.425781 311.265625 31.695312 308.882812 30.320312 C 304.386719 27.714844 301.359375 22.769531 301.125 17.617188 C 300.890625 12.40625 303.289062 7.453125 305.976562 2.96875 Z M 305.976562 2.96875 " clip-rule="nonzero"/></clipPath><linearGradient x1="-1204.20996" gradientTransform="matrix(-0.0490991, 0, 0, 0.0486553, 252.344903, 0)" y1="61.000001" x2="-1204.20996" gradientUnits="userSpaceOnUse" y2="820.500069" id="98b0c49cf1"><stop stop-opacity="1" stop-color="rgb(53.503418%, 74.87793%, 25.770569%)" offset="0"/><stop stop-opacity="1" stop-color="rgb(53.413391%, 74.772644%, 25.761414%)" offset="0.125"/><stop stop-opacity="1" stop-color="rgb(53.234863%, 74.565125%, 25.744629%)" offset="0.25"/><stop stop-opacity="1" stop-color="rgb(53.05481%, 74.356079%, 25.727844%)" offset="0.375"/><stop stop-opacity="1" stop-color="rgb(52.876282%, 74.147034%, 25.71106%)" offset="0.5"/><stop stop-opacity="1" stop-color="rgb(52.696228%, 73.939514%, 25.694275%)" offset="0.625"/><stop stop-opacity="1" stop-color="rgb(52.5177%, 73.730469%, 25.67749%)" offset="0.75"/><stop stop-opacity="1" stop-color="rgb(52.337646%, 73.522949%, 25.660706%)" offset="0.875"/><stop stop-opacity="1" stop-color="rgb(52.157593%, 73.313904%, 25.645447%)" offset="1"/></linearGradient></defs><g clip-path="url(#0718005d21)"><path fill="#8cc342" d="M 284.5625 21.800781 C 284.410156 21.648438 284.164062 21.648438 284.011719 21.800781 L 282.085938 23.726562 L 104.738281 23.726562 C 104.625 23.722656 93.183594 23.25 84.796875 18.144531 C 84.847656 17.980469 84.902344 17.816406 84.902344 17.632812 C 84.902344 16.589844 84.050781 15.742188 83.011719 15.742188 C 81.96875 15.742188 81.117188 16.589844 81.117188 17.632812 C 81.117188 18.675781 81.964844 19.523438 83.011719 19.523438 C 83.585938 19.523438 84.085938 19.25 84.433594 18.839844 C 88.933594 21.5625 94.257812 22.988281 98.328125 23.726562 L 76.898438 23.726562 C 76.464844 23.683594 58.105469 21.855469 50.140625 18.125 C 50.1875 17.957031 50.246094 17.789062 50.246094 17.605469 C 50.246094 16.5625 49.398438 15.714844 48.351562 15.714844 C 47.308594 15.714844 46.460938 16.5625 46.460938 17.605469 C 46.460938 18.648438 47.308594 19.5 48.351562 19.5 C 48.929688 19.5 49.429688 19.226562 49.773438 18.816406 C 54.9375 21.25 64.148438 22.855469 70.386719 23.722656 L 44.609375 23.722656 C 44.496094 23.71875 33.054688 23.246094 24.667969 18.144531 C 24.714844 17.976562 24.769531 17.8125 24.769531 17.632812 C 24.769531 16.59375 23.921875 15.742188 22.878906 15.742188 C 21.835938 15.742188 20.988281 16.59375 20.988281 17.632812 C 20.988281 18.675781 21.835938 19.523438 22.878906 19.523438 C 23.457031 19.523438 23.957031 19.25 24.304688 18.839844 C 28.804688 21.566406 34.128906 22.992188 38.199219 23.726562 L 19.191406 23.726562 C 19.117188 23.726562 11.710938 23.472656 8.210938 20.460938 C 8.28125 20.265625 8.335938 20.058594 8.335938 19.835938 C 8.335938 18.792969 7.488281 17.945312 6.445312 17.945312 C 5.402344 17.945312 4.554688 18.792969 4.554688 19.835938 C 4.554688 20.878906 5.402344 21.730469 6.445312 21.730469 C 6.980469 21.730469 7.460938 21.5 7.804688 21.140625 C 11.550781 24.25 18.851562 24.5 19.179688 24.511719 L 26.804688 24.511719 C 21.96875 25.679688 18.109375 27.515625 15.113281 30.074219 C 14.765625 29.613281 14.242188 29.296875 13.625 29.296875 C 12.582031 29.296875 11.734375 30.144531 11.734375 31.1875 C 11.734375 32.226562 12.582031 33.078125 13.625 33.078125 C 14.664062 33.078125 15.515625 32.230469 15.515625 31.1875 C 15.515625 31.054688 15.464844 30.9375 15.441406 30.8125 C 19.101562 27.617188 24.117188 25.550781 30.777344 24.507812 L 56.574219 24.507812 C 51.785156 25.324219 45.546875 26.933594 42.175781 30.015625 C 41.835938 29.691406 41.382812 29.484375 40.878906 29.484375 C 39.835938 29.484375 38.988281 30.335938 38.988281 31.378906 C 38.988281 32.421875 39.835938 33.269531 40.878906 33.269531 C 41.917969 33.269531 42.769531 32.421875 42.769531 31.378906 C 42.769531 31.117188 42.714844 30.871094 42.621094 30.640625 C 48.167969 25.476562 62.871094 24.519531 63.023438 24.507812 L 82.097656 24.507812 C 77.152344 25.269531 71.710938 26.527344 67.941406 30.121094 C 67.597656 29.632812 67.0625 29.296875 66.421875 29.296875 C 65.378906 29.296875 64.53125 30.144531 64.53125 31.1875 C 64.53125 32.226562 65.378906 33.078125 66.421875 33.078125 C 67.464844 33.078125 68.316406 32.230469 68.316406 31.1875 C 68.316406 31.078125 68.269531 30.984375 68.253906 30.878906 C 72.546875 26.601562 79.433594 25.644531 84.972656 24.882812 C 85.871094 24.757812 86.742188 24.636719 87.570312 24.511719 L 282.089844 24.511719 L 284.011719 26.433594 C 284.089844 26.511719 284.1875 26.546875 284.289062 26.546875 C 284.390625 26.546875 284.488281 26.511719 284.566406 26.433594 L 286.605469 24.394531 C 286.757812 24.242188 286.757812 23.992188 286.605469 23.839844 L 284.566406 21.800781 Z M 83.011719 18.742188 C 82.398438 18.742188 81.902344 18.246094 81.902344 17.632812 C 81.902344 17.023438 82.398438 16.527344 83.011719 16.527344 C 83.625 16.527344 84.121094 17.023438 84.121094 17.632812 C 84.121094 18.246094 83.625 18.742188 83.011719 18.742188 Z M 48.351562 18.71875 C 47.742188 18.71875 47.246094 18.21875 47.246094 17.609375 C 47.246094 16.996094 47.742188 16.5 48.351562 16.5 C 48.964844 16.5 49.460938 16.996094 49.460938 17.609375 C 49.460938 18.21875 48.964844 18.71875 48.351562 18.71875 Z M 22.878906 18.742188 C 22.269531 18.742188 21.769531 18.246094 21.769531 17.632812 C 21.769531 17.023438 22.269531 16.527344 22.878906 16.527344 C 23.492188 16.527344 23.988281 17.023438 23.988281 17.632812 C 23.988281 18.246094 23.492188 18.742188 22.878906 18.742188 Z M 6.445312 20.945312 C 5.832031 20.945312 5.335938 20.445312 5.335938 19.835938 C 5.335938 19.222656 5.832031 18.726562 6.445312 18.726562 C 7.054688 18.726562 7.550781 19.222656 7.550781 19.835938 C 7.550781 20.445312 7.054688 20.945312 6.445312 20.945312 Z M 13.621094 32.296875 C 13.007812 32.296875 12.511719 31.796875 12.511719 31.1875 C 12.511719 30.574219 13.007812 30.078125 13.621094 30.078125 C 14.230469 30.078125 14.730469 30.574219 14.730469 31.1875 C 14.730469 31.796875 14.230469 32.296875 13.621094 32.296875 Z M 40.875 32.484375 C 40.261719 32.484375 39.765625 31.988281 39.765625 31.378906 C 39.765625 30.765625 40.261719 30.269531 40.875 30.269531 C 41.484375 30.269531 41.984375 30.765625 41.984375 31.378906 C 41.984375 31.988281 41.484375 32.484375 40.875 32.484375 Z M 66.417969 32.296875 C 65.808594 32.296875 65.3125 31.796875 65.3125 31.1875 C 65.3125 30.574219 65.808594 30.078125 66.417969 30.078125 C 67.03125 30.078125 67.527344 30.574219 67.527344 31.1875 C 67.527344 31.796875 67.03125 32.296875 66.417969 32.296875 Z M 284.289062 25.605469 L 282.835938 24.152344 L 282.835938 24.085938 L 284.289062 22.632812 L 285.773438 24.117188 L 284.289062 25.601562 Z M 570.179688 17.945312 C 569.136719 17.945312 568.289062 18.792969 568.289062 19.835938 C 568.289062 20.058594 568.34375 20.261719 568.414062 20.460938 C 564.914062 23.46875 557.507812 23.722656 557.441406 23.726562 L 538.421875 23.726562 C 542.496094 22.988281 547.816406 21.566406 552.320312 18.839844 C 552.667969 19.25 553.164062 19.523438 553.742188 19.523438 C 554.785156 19.523438 555.632812 18.675781 555.632812 17.632812 C 555.632812 16.589844 554.785156 15.742188 553.742188 15.742188 C 552.699219 15.742188 551.851562 16.589844 551.851562 17.632812 C 551.851562 17.8125 551.910156 17.980469 551.957031 18.144531 C 543.570312 23.246094 532.125 23.722656 532.011719 23.726562 L 506.238281 23.726562 C 512.472656 22.855469 521.6875 21.25 526.847656 18.820312 C 527.195312 19.226562 527.691406 19.5 528.269531 19.5 C 529.3125 19.5 530.160156 18.652344 530.160156 17.609375 C 530.160156 16.5625 529.3125 15.71875 528.269531 15.71875 C 527.226562 15.71875 526.378906 16.566406 526.378906 17.609375 C 526.378906 17.789062 526.433594 17.957031 526.484375 18.125 C 518.519531 21.855469 500.15625 23.683594 499.722656 23.726562 L 478.292969 23.726562 C 482.363281 22.988281 487.6875 21.566406 492.1875 18.839844 C 492.535156 19.25 493.035156 19.523438 493.613281 19.523438 C 494.65625 19.523438 495.503906 18.675781 495.503906 17.632812 C 495.503906 16.589844 494.65625 15.742188 493.613281 15.742188 C 492.570312 15.742188 491.71875 16.589844 491.71875 17.632812 C 491.71875 17.8125 491.777344 17.980469 491.824219 18.144531 C 483.441406 23.246094 471.996094 23.722656 471.882812 23.726562 L 294.535156 23.726562 L 292.609375 21.800781 C 292.457031 21.648438 292.210938 21.648438 292.058594 21.800781 L 290.015625 23.84375 C 289.863281 23.996094 289.863281 24.242188 290.015625 24.394531 L 292.058594 26.433594 C 292.132812 26.511719 292.230469 26.550781 292.332031 26.550781 C 292.4375 26.550781 292.535156 26.511719 292.609375 26.433594 L 294.535156 24.511719 L 489.050781 24.511719 C 489.882812 24.640625 490.75 24.761719 491.652344 24.882812 C 497.191406 25.648438 504.078125 26.601562 508.371094 30.882812 C 508.351562 30.984375 508.308594 31.078125 508.308594 31.1875 C 508.308594 32.230469 509.15625 33.078125 510.199219 33.078125 C 511.246094 33.078125 512.089844 32.230469 512.089844 31.1875 C 512.089844 30.144531 511.242188 29.296875 510.199219 29.296875 C 509.5625 29.296875 509.023438 29.632812 508.679688 30.121094 C 504.910156 26.53125 499.472656 25.269531 494.523438 24.511719 L 513.601562 24.511719 C 513.753906 24.519531 528.453125 25.476562 534.003906 30.644531 C 533.90625 30.871094 533.855469 31.117188 533.855469 31.378906 C 533.855469 32.421875 534.703125 33.269531 535.746094 33.269531 C 536.789062 33.269531 537.636719 32.421875 537.636719 31.378906 C 537.636719 30.335938 536.789062 29.488281 535.746094 29.488281 C 535.238281 29.488281 534.785156 29.691406 534.445312 30.015625 C 531.074219 26.9375 524.835938 25.324219 520.046875 24.511719 L 545.847656 24.511719 C 552.503906 25.550781 557.519531 27.617188 561.183594 30.816406 C 561.160156 30.9375 561.109375 31.054688 561.109375 31.1875 C 561.109375 32.230469 561.957031 33.078125 563 33.078125 C 564.046875 33.078125 564.890625 32.230469 564.890625 31.1875 C 564.890625 30.144531 564.042969 29.296875 563 29.296875 C 562.382812 29.296875 561.855469 29.613281 561.511719 30.074219 C 558.511719 27.515625 554.652344 25.679688 549.816406 24.511719 L 557.453125 24.511719 C 557.773438 24.503906 565.070312 24.253906 568.816406 21.140625 C 569.160156 21.5 569.640625 21.730469 570.175781 21.730469 C 571.222656 21.730469 572.070312 20.882812 572.070312 19.839844 C 572.070312 18.792969 571.222656 17.949219 570.175781 17.949219 Z M 553.742188 16.527344 C 554.355469 16.527344 554.851562 17.023438 554.851562 17.632812 C 554.851562 18.246094 554.355469 18.742188 553.742188 18.742188 C 553.132812 18.742188 552.636719 18.246094 552.636719 17.632812 C 552.636719 17.023438 553.132812 16.527344 553.742188 16.527344 Z M 528.269531 16.5 C 528.882812 16.5 529.378906 16.996094 529.378906 17.609375 C 529.378906 18.21875 528.882812 18.71875 528.269531 18.71875 C 527.660156 18.71875 527.160156 18.21875 527.160156 17.609375 C 527.160156 16.996094 527.660156 16.5 528.269531 16.5 Z M 493.613281 16.527344 C 494.226562 16.527344 494.722656 17.023438 494.722656 17.632812 C 494.722656 18.246094 494.226562 18.742188 493.613281 18.742188 C 493 18.742188 492.503906 18.246094 492.503906 17.632812 C 492.503906 17.023438 493 16.527344 493.613281 16.527344 Z M 292.332031 25.605469 L 290.847656 24.117188 L 292.332031 22.632812 L 293.785156 24.085938 L 293.785156 24.152344 Z M 510.203125 30.078125 C 510.8125 30.078125 511.308594 30.574219 511.308594 31.1875 C 511.308594 31.796875 510.8125 32.296875 510.203125 32.296875 C 509.589844 32.296875 509.09375 31.796875 509.09375 31.1875 C 509.09375 30.574219 509.589844 30.078125 510.203125 30.078125 Z M 535.746094 30.269531 C 536.359375 30.269531 536.855469 30.765625 536.855469 31.378906 C 536.855469 31.988281 536.359375 32.484375 535.746094 32.484375 C 535.136719 32.484375 534.640625 31.988281 534.640625 31.378906 C 534.640625 30.765625 535.136719 30.269531 535.746094 30.269531 Z M 563 30.078125 C 563.613281 30.078125 564.109375 30.574219 564.109375 31.1875 C 564.109375 31.796875 563.613281 32.296875 563 32.296875 C 562.390625 32.296875 561.890625 31.796875 561.890625 31.1875 C 561.890625 30.574219 562.390625 30.078125 563 30.078125 Z M 570.175781 20.945312 C 569.566406 20.945312 569.070312 20.445312 569.070312 19.835938 C 569.070312 19.222656 569.566406 18.726562 570.175781 18.726562 C 570.789062 18.726562 571.289062 19.222656 571.289062 19.835938 C 571.289062 20.445312 570.789062 20.945312 570.175781 20.945312 Z M 570.175781 20.945312 " fill-opacity="1" fill-rule="nonzero"/></g><g clip-path="url(#00cb349135)"><path fill="#25995c" d="M 367.179688 21.800781 C 367.332031 21.648438 367.582031 21.648438 367.734375 21.800781 L 369.65625 23.726562 L 547.003906 23.726562 C 547.121094 23.722656 558.558594 23.25 566.949219 18.144531 C 566.898438 17.980469 566.84375 17.816406 566.84375 17.632812 C 566.84375 16.589844 567.691406 15.742188 568.734375 15.742188 C 569.777344 15.742188 570.628906 16.589844 570.628906 17.632812 C 570.628906 18.675781 569.777344 19.523438 568.734375 19.523438 C 568.15625 19.523438 567.65625 19.25 567.308594 18.839844 C 562.8125 21.5625 557.488281 22.988281 553.414062 23.726562 L 574.84375 23.726562 C 575.277344 23.683594 593.640625 21.855469 601.605469 18.125 C 601.554688 17.957031 601.5 17.789062 601.5 17.605469 C 601.5 16.5625 602.347656 15.714844 603.390625 15.714844 C 604.4375 15.714844 605.28125 16.5625 605.28125 17.605469 C 605.28125 18.648438 604.433594 19.5 603.390625 19.5 C 602.816406 19.5 602.316406 19.226562 601.96875 18.816406 C 596.808594 21.25 587.59375 22.855469 581.359375 23.722656 L 607.132812 23.722656 C 607.25 23.71875 618.691406 23.246094 627.078125 18.144531 C 627.03125 17.976562 626.976562 17.8125 626.976562 17.632812 C 626.976562 16.59375 627.824219 15.742188 628.867188 15.742188 C 629.90625 15.742188 630.757812 16.59375 630.757812 17.632812 C 630.757812 18.675781 629.90625 19.523438 628.867188 19.523438 C 628.285156 19.523438 627.785156 19.25 627.441406 18.839844 C 622.941406 21.566406 617.617188 22.992188 613.542969 23.726562 L 632.554688 23.726562 C 632.628906 23.726562 640.03125 23.472656 643.535156 20.460938 C 643.464844 20.265625 643.410156 20.058594 643.410156 19.835938 C 643.410156 18.792969 644.257812 17.945312 645.300781 17.945312 C 646.34375 17.945312 647.191406 18.792969 647.191406 19.835938 C 647.191406 20.878906 646.34375 21.730469 645.300781 21.730469 C 644.761719 21.730469 644.285156 21.5 643.941406 21.140625 C 640.195312 24.25 632.894531 24.5 632.5625 24.511719 L 624.9375 24.511719 C 629.777344 25.679688 633.632812 27.515625 636.632812 30.074219 C 636.980469 29.613281 637.503906 29.296875 638.121094 29.296875 C 639.164062 29.296875 640.011719 30.144531 640.011719 31.1875 C 640.011719 32.226562 639.164062 33.078125 638.121094 33.078125 C 637.078125 33.078125 636.230469 32.230469 636.230469 31.1875 C 636.230469 31.054688 636.28125 30.9375 636.304688 30.8125 C 632.644531 27.617188 627.628906 25.550781 620.96875 24.507812 L 595.167969 24.507812 C 599.957031 25.324219 606.195312 26.933594 609.570312 30.015625 C 609.90625 29.691406 610.363281 29.484375 610.867188 29.484375 C 611.910156 29.484375 612.757812 30.335938 612.757812 31.378906 C 612.757812 32.421875 611.910156 33.269531 610.867188 33.269531 C 609.824219 33.269531 608.976562 32.421875 608.976562 31.378906 C 608.976562 31.117188 609.03125 30.871094 609.125 30.640625 C 603.574219 25.476562 588.875 24.519531 588.722656 24.507812 L 569.644531 24.507812 C 574.59375 25.269531 580.035156 26.527344 583.800781 30.121094 C 584.144531 29.632812 584.683594 29.296875 585.324219 29.296875 C 586.363281 29.296875 587.214844 30.144531 587.214844 31.1875 C 587.214844 32.226562 586.363281 33.078125 585.324219 33.078125 C 584.28125 33.078125 583.429688 32.230469 583.429688 31.1875 C 583.429688 31.078125 583.472656 30.984375 583.492188 30.878906 C 579.199219 26.601562 572.3125 25.644531 566.773438 24.882812 C 565.875 24.757812 565.003906 24.636719 564.175781 24.511719 L 369.65625 24.511719 L 367.734375 26.433594 C 367.65625 26.511719 367.558594 26.546875 367.457031 26.546875 C 367.355469 26.546875 367.253906 26.511719 367.179688 26.433594 L 365.140625 24.394531 C 364.984375 24.242188 364.984375 23.992188 365.140625 23.839844 Z M 568.734375 18.742188 C 569.34375 18.742188 569.84375 18.246094 569.84375 17.632812 C 569.84375 17.023438 569.34375 16.527344 568.734375 16.527344 C 568.121094 16.527344 567.625 17.023438 567.625 17.632812 C 567.625 18.246094 568.121094 18.742188 568.734375 18.742188 Z M 603.390625 18.71875 C 604.003906 18.71875 604.5 18.21875 604.5 17.609375 C 604.5 16.996094 604.003906 16.5 603.390625 16.5 C 602.78125 16.5 602.28125 16.996094 602.28125 17.609375 C 602.28125 18.21875 602.78125 18.71875 603.390625 18.71875 Z M 628.867188 18.742188 C 629.476562 18.742188 629.972656 18.246094 629.972656 17.632812 C 629.972656 17.023438 629.476562 16.527344 628.867188 16.527344 C 628.253906 16.527344 627.757812 17.023438 627.757812 17.632812 C 627.757812 18.246094 628.253906 18.742188 628.867188 18.742188 Z M 645.300781 20.945312 C 645.914062 20.945312 646.410156 20.445312 646.410156 19.835938 C 646.410156 19.222656 645.914062 18.726562 645.300781 18.726562 C 644.6875 18.726562 644.191406 19.222656 644.191406 19.835938 C 644.191406 20.445312 644.6875 20.945312 645.300781 20.945312 Z M 638.125 32.296875 C 638.738281 32.296875 639.234375 31.796875 639.234375 31.1875 C 639.234375 30.574219 638.738281 30.078125 638.125 30.078125 C 637.511719 30.078125 637.015625 30.574219 637.015625 31.1875 C 637.015625 31.796875 637.511719 32.296875 638.125 32.296875 Z M 610.871094 32.484375 C 611.484375 32.484375 611.980469 31.988281 611.980469 31.378906 C 611.980469 30.765625 611.484375 30.269531 610.871094 30.269531 C 610.257812 30.269531 609.761719 30.765625 609.761719 31.378906 C 609.761719 31.988281 610.257812 32.484375 610.871094 32.484375 Z M 585.324219 32.296875 C 585.9375 32.296875 586.433594 31.796875 586.433594 31.1875 C 586.433594 30.574219 585.9375 30.078125 585.324219 30.078125 C 584.714844 30.078125 584.214844 30.574219 584.214844 31.1875 C 584.214844 31.796875 584.714844 32.296875 585.324219 32.296875 Z M 367.457031 25.605469 L 368.910156 24.152344 L 368.910156 24.085938 L 367.457031 22.632812 L 365.972656 24.117188 L 367.457031 25.601562 Z M 81.566406 17.945312 C 82.609375 17.945312 83.457031 18.792969 83.457031 19.835938 C 83.457031 20.058594 83.398438 20.261719 83.328125 20.460938 C 86.832031 23.46875 94.234375 23.722656 94.300781 23.726562 L 113.324219 23.726562 C 109.25 22.988281 103.925781 21.566406 99.425781 18.839844 C 99.078125 19.25 98.578125 19.523438 98 19.523438 C 96.960938 19.523438 96.109375 18.675781 96.109375 17.632812 C 96.109375 16.589844 96.960938 15.742188 98 15.742188 C 99.042969 15.742188 99.890625 16.589844 99.890625 17.632812 C 99.890625 17.8125 99.835938 17.980469 99.789062 18.144531 C 108.171875 23.246094 119.617188 23.722656 119.734375 23.726562 L 145.507812 23.726562 C 139.273438 22.855469 130.058594 21.25 124.898438 18.820312 C 124.550781 19.226562 124.050781 19.5 123.476562 19.5 C 122.433594 19.5 121.585938 18.652344 121.585938 17.609375 C 121.585938 16.5625 122.433594 15.71875 123.476562 15.71875 C 124.519531 15.71875 125.367188 16.566406 125.367188 17.609375 C 125.367188 17.789062 125.3125 17.957031 125.261719 18.125 C 133.226562 21.855469 151.589844 23.683594 152.023438 23.726562 L 173.453125 23.726562 C 169.382812 22.988281 164.058594 21.566406 159.558594 18.839844 C 159.210938 19.25 158.710938 19.523438 158.132812 19.523438 C 157.089844 19.523438 156.242188 18.675781 156.242188 17.632812 C 156.242188 16.589844 157.089844 15.742188 158.132812 15.742188 C 159.175781 15.742188 160.023438 16.589844 160.023438 17.632812 C 160.023438 17.8125 159.96875 17.980469 159.921875 18.144531 C 168.304688 23.246094 179.75 23.722656 179.863281 23.726562 L 357.210938 23.726562 L 359.132812 21.800781 C 359.289062 21.648438 359.535156 21.648438 359.6875 21.800781 L 361.726562 23.84375 C 361.882812 23.996094 361.882812 24.242188 361.726562 24.394531 L 359.6875 26.433594 C 359.613281 26.511719 359.511719 26.550781 359.410156 26.550781 C 359.308594 26.550781 359.210938 26.511719 359.132812 26.433594 L 357.210938 24.511719 L 162.691406 24.511719 C 161.863281 24.640625 160.992188 24.761719 160.09375 24.882812 C 154.550781 25.648438 147.667969 26.601562 143.375 30.882812 C 143.390625 30.984375 143.4375 31.078125 143.4375 31.1875 C 143.4375 32.230469 142.589844 33.078125 141.542969 33.078125 C 140.5 33.078125 139.652344 32.230469 139.652344 31.1875 C 139.652344 30.144531 140.503906 29.296875 141.542969 29.296875 C 142.183594 29.296875 142.722656 29.632812 143.0625 30.121094 C 146.832031 26.53125 152.273438 25.269531 157.222656 24.511719 L 138.144531 24.511719 C 137.992188 24.519531 123.292969 25.476562 117.742188 30.644531 C 117.835938 30.871094 117.890625 31.117188 117.890625 31.378906 C 117.890625 32.421875 117.042969 33.269531 116 33.269531 C 114.957031 33.269531 114.109375 32.421875 114.109375 31.378906 C 114.109375 30.335938 114.957031 29.488281 116 29.488281 C 116.503906 29.488281 116.957031 29.691406 117.296875 30.015625 C 120.671875 26.9375 126.910156 25.324219 131.695312 24.511719 L 105.898438 24.511719 C 99.242188 25.550781 94.226562 27.617188 90.5625 30.816406 C 90.585938 30.9375 90.636719 31.054688 90.636719 31.1875 C 90.636719 32.230469 89.789062 33.078125 88.742188 33.078125 C 87.699219 33.078125 86.851562 32.230469 86.851562 31.1875 C 86.851562 30.144531 87.703125 29.296875 88.742188 29.296875 C 89.363281 29.296875 89.886719 29.613281 90.230469 30.074219 C 93.234375 27.515625 97.089844 25.679688 101.929688 24.511719 L 94.292969 24.511719 C 93.972656 24.503906 86.671875 24.253906 82.925781 21.140625 C 82.582031 21.5 82.105469 21.730469 81.566406 21.730469 C 80.523438 21.730469 79.675781 20.882812 79.675781 19.839844 C 79.675781 18.792969 80.523438 17.949219 81.566406 17.949219 Z M 98 16.527344 C 97.390625 16.527344 96.894531 17.023438 96.894531 17.632812 C 96.894531 18.246094 97.390625 18.742188 98 18.742188 C 98.613281 18.742188 99.109375 18.246094 99.109375 17.632812 C 99.109375 17.023438 98.613281 16.527344 98 16.527344 Z M 123.476562 16.5 C 122.863281 16.5 122.367188 16.996094 122.367188 17.609375 C 122.367188 18.21875 122.863281 18.71875 123.476562 18.71875 C 124.085938 18.71875 124.582031 18.21875 124.582031 17.609375 C 124.582031 16.996094 124.085938 16.5 123.476562 16.5 Z M 158.132812 16.527344 C 157.519531 16.527344 157.023438 17.023438 157.023438 17.632812 C 157.023438 18.246094 157.519531 18.742188 158.132812 18.742188 C 158.746094 18.742188 159.242188 18.246094 159.242188 17.632812 C 159.242188 17.023438 158.746094 16.527344 158.132812 16.527344 Z M 359.410156 25.605469 L 360.894531 24.117188 L 359.410156 22.632812 L 357.957031 24.085938 L 357.957031 24.152344 Z M 141.542969 30.078125 C 140.929688 30.078125 140.433594 30.574219 140.433594 31.1875 C 140.433594 31.796875 140.929688 32.296875 141.542969 32.296875 C 142.15625 32.296875 142.652344 31.796875 142.652344 31.1875 C 142.652344 30.574219 142.15625 30.078125 141.542969 30.078125 Z M 115.996094 30.269531 C 115.386719 30.269531 114.890625 30.765625 114.890625 31.378906 C 114.890625 31.988281 115.386719 32.484375 115.996094 32.484375 C 116.609375 32.484375 117.105469 31.988281 117.105469 31.378906 C 117.105469 30.765625 116.609375 30.269531 115.996094 30.269531 Z M 88.742188 30.078125 C 88.132812 30.078125 87.636719 30.574219 87.636719 31.1875 C 87.636719 31.796875 88.132812 32.296875 88.742188 32.296875 C 89.355469 32.296875 89.851562 31.796875 89.851562 31.1875 C 89.851562 30.574219 89.355469 30.078125 88.742188 30.078125 Z M 81.566406 20.945312 C 82.179688 20.945312 82.675781 20.445312 82.675781 19.835938 C 82.675781 19.222656 82.179688 18.726562 81.566406 18.726562 C 80.957031 18.726562 80.457031 19.222656 80.457031 19.835938 C 80.457031 20.445312 80.957031 20.945312 81.566406 20.945312 Z M 81.566406 20.945312 " fill-opacity="1" fill-rule="nonzero"/></g><g clip-path="url(#28e5a76243)"><path fill="#006838" d="M 344.402344 0 C 345.023438 3.09375 343.460938 6.285156 341.214844 8.515625 C 338.964844 10.746094 336.089844 12.226562 333.34375 13.816406 C 330.59375 15.410156 327.847656 17.222656 326.125 19.875 C 324.625 22.183594 324.011719 24.945312 323.695312 27.671875 C 323.304688 30.980469 323.355469 34.449219 324.417969 37.5625 C 325.1875 35.683594 326.195312 33.886719 327.339844 32.210938 C 329.585938 28.90625 332.355469 25.992188 335.109375 23.09375 C 338.332031 19.707031 341.546875 16.324219 344.769531 12.9375 C 341.433594 19.125 336.269531 24.117188 331.90625 29.640625 C 327.539062 35.167969 323.816406 41.765625 324.226562 48.773438 C 324.550781 45.1875 327.484375 42.339844 330.671875 40.609375 C 333.859375 38.875 337.429688 37.90625 340.566406 36.097656 C 346.503906 32.671875 350.492188 26.140625 350.804688 19.339844 C 351.117188 12.460938 347.949219 5.917969 344.402344 0 Z M 344.402344 0 " fill-opacity="1" fill-rule="nonzero"/></g><g clip-path="url(#b5eb4c8fa3)"><g clip-path="url(#7c46314f02)"><path fill="url(#98b0c49cf1)" d="M 321.957031 2.96875 L 321.957031 39.921875 L 300.890625 39.921875 L 300.890625 2.96875 Z M 321.957031 2.96875 " fill-rule="nonzero"/></g></g></svg>